<svg width="193" height="56" viewBox="0 0 193 56" fill="none" xmlns="http://www.w3.org/2000/svg">
<path d="M63.8633 32.5381H69.4111C69.2998 34.3565 68.7988 35.9707 67.9082 37.3809C67.0299 38.791 65.7992 39.8919 64.2158 40.6836C62.6449 41.4753 60.7523 41.8711 58.5381 41.8711C56.8063 41.8711 55.2539 41.5742 53.8809 40.9805C52.5078 40.3744 51.3327 39.5085 50.3555 38.3828C49.3906 37.2572 48.6546 35.8965 48.1475 34.3008C47.6403 32.7051 47.3867 30.9177 47.3867 28.9385V27.0645C47.3867 25.0853 47.6465 23.2979 48.166 21.7022C48.6979 20.0941 49.4525 18.7272 50.4297 17.6016C51.4193 16.4759 52.6006 15.61 53.9736 15.0039C55.3467 14.3978 56.8805 14.0947 58.5752 14.0947C60.8265 14.0947 62.7253 14.5029 64.2715 15.3194C65.8301 16.1358 67.0361 17.2614 67.8896 18.6963C68.7555 20.1312 69.2751 21.764 69.4482 23.5947H63.8818C63.82 22.5062 63.6035 21.5847 63.2324 20.8301C62.8613 20.0632 62.2985 19.488 61.5439 19.1045C60.8018 18.7087 59.8122 18.5108 58.5752 18.5108C57.6475 18.5108 56.8372 18.6839 56.1445 19.0303C55.4518 19.3766 54.8704 19.9024 54.4004 20.6074C53.9303 21.3125 53.5778 22.2031 53.3428 23.2793C53.1201 24.3431 53.0088 25.5925 53.0088 27.0274V28.9385C53.0088 30.3363 53.1139 31.5671 53.3242 32.6309C53.5345 33.6823 53.8561 34.5729 54.2891 35.3027C54.7344 36.0202 55.3034 36.5645 55.9961 36.9356C56.7012 37.2943 57.5485 37.4736 58.5381 37.4736C59.7008 37.4736 60.6595 37.2881 61.4141 36.917C62.1686 36.5459 62.7438 35.9955 63.1396 35.2656C63.5479 34.5358 63.7891 33.6266 63.8633 32.5381ZM71.8789 31.666V31.2764C71.8789 29.8044 72.0892 28.4499 72.5098 27.2129C72.9303 25.9636 73.5426 24.8812 74.3467 23.9658C75.1507 23.0505 76.1403 22.3392 77.3154 21.832C78.4906 21.3125 79.8389 21.0527 81.3604 21.0527C82.8818 21.0527 84.2363 21.3125 85.4238 21.832C86.6113 22.3392 87.6071 23.0505 88.4111 23.9658C89.2275 24.8812 89.846 25.9636 90.2666 27.2129C90.6872 28.4499 90.8975 29.8044 90.8975 31.2764V31.666C90.8975 33.1257 90.6872 34.4802 90.2666 35.7295C89.846 36.9665 89.2275 38.0488 88.4111 38.9766C87.6071 39.8919 86.6175 40.6032 85.4424 41.1104C84.2673 41.6175 82.9189 41.8711 81.3975 41.8711C79.876 41.8711 78.5215 41.6175 77.334 41.1104C76.1589 40.6032 75.1631 39.8919 74.3467 38.9766C73.5426 38.0488 72.9303 36.9665 72.5098 35.7295C72.0892 34.4802 71.8789 33.1257 71.8789 31.666ZM77.2227 31.2764V31.666C77.2227 32.5072 77.2969 33.2927 77.4453 34.0225C77.5938 34.7523 77.8288 35.3955 78.1504 35.9522C78.4844 36.4964 78.9173 36.9232 79.4492 37.2324C79.9811 37.5417 80.6305 37.6963 81.3975 37.6963C82.1396 37.6963 82.7767 37.5417 83.3086 37.2324C83.8405 36.9232 84.2673 36.4964 84.5889 35.9522C84.9105 35.3955 85.1455 34.7523 85.2939 34.0225C85.4548 33.2927 85.5352 32.5072 85.5352 31.666V31.2764C85.5352 30.46 85.4548 29.693 85.2939 28.9756C85.1455 28.2458 84.9043 27.6026 84.5703 27.0459C84.2487 26.4769 83.8219 26.0316 83.29 25.71C82.7581 25.3884 82.1149 25.2276 81.3604 25.2276C80.6058 25.2276 79.9626 25.3884 79.4307 25.71C78.9111 26.0316 78.4844 26.4769 78.1504 27.0459C77.8288 27.6026 77.5938 28.2458 77.4453 28.9756C77.2969 29.693 77.2227 30.46 77.2227 31.2764ZM99.4141 25.71V41.5H94.0703V21.4238H99.0801L99.4141 25.71ZM98.6348 30.7569H97.1875C97.1875 29.2725 97.3792 27.9365 97.7627 26.749C98.1462 25.5492 98.6842 24.5287 99.377 23.6875C100.07 22.834 100.892 22.1846 101.845 21.7393C102.81 21.2816 103.886 21.0527 105.073 21.0527C106.013 21.0527 106.873 21.1888 107.652 21.461C108.432 21.7331 109.1 22.166 109.656 22.7598C110.225 23.3535 110.658 24.139 110.955 25.1162C111.264 26.0934 111.419 27.2871 111.419 28.6973V41.5H106.038V28.6787C106.038 27.7881 105.914 27.0954 105.667 26.6006C105.42 26.1058 105.055 25.7595 104.572 25.5615C104.102 25.3513 103.521 25.2461 102.828 25.2461C102.111 25.2461 101.486 25.3884 100.954 25.6729C100.435 25.9574 100.002 26.3532 99.6553 26.8604C99.3213 27.3552 99.0677 27.9365 98.8945 28.6045C98.7214 29.2725 98.6348 29.9899 98.6348 30.7569ZM125.316 21.4238V25.209H113.627V21.4238H125.316ZM116.521 16.4697H121.865V35.4512C121.865 36.0326 121.939 36.4779 122.088 36.7871C122.249 37.0964 122.484 37.3128 122.793 37.4365C123.102 37.5479 123.492 37.6035 123.962 37.6035C124.296 37.6035 124.593 37.5912 124.853 37.5664C125.125 37.5293 125.354 37.4922 125.539 37.4551L125.558 41.3887C125.1 41.5371 124.605 41.6546 124.073 41.7412C123.541 41.8278 122.954 41.8711 122.311 41.8711C121.135 41.8711 120.109 41.6794 119.23 41.2959C118.365 40.9001 117.697 40.2692 117.227 39.4033C116.757 38.5375 116.521 37.3994 116.521 35.9893V16.4697ZM133.703 25.8027V41.5H128.359V21.4238H133.388L133.703 25.8027ZM139.752 21.294L139.659 26.2481C139.399 26.211 139.084 26.18 138.713 26.1553C138.354 26.1182 138.026 26.0996 137.729 26.0996C136.975 26.0996 136.319 26.1986 135.763 26.3965C135.218 26.582 134.761 26.8604 134.39 27.2315C134.031 27.6026 133.759 28.0541 133.573 28.586C133.4 29.1179 133.301 29.724 133.276 30.4043L132.2 30.0703C132.2 28.7715 132.33 27.5778 132.59 26.4893C132.85 25.3884 133.227 24.4297 133.722 23.6133C134.229 22.7969 134.847 22.166 135.577 21.7207C136.307 21.2754 137.142 21.0527 138.082 21.0527C138.379 21.0527 138.682 21.0775 138.991 21.127C139.3 21.1641 139.554 21.2197 139.752 21.294ZM152.48 36.9727V28.0293C152.48 27.3861 152.375 26.8356 152.165 26.3779C151.955 25.9079 151.627 25.543 151.182 25.2832C150.749 25.0235 150.186 24.8936 149.493 24.8936C148.899 24.8936 148.386 24.9987 147.953 25.209C147.52 25.4069 147.186 25.6976 146.951 26.0811C146.716 26.4522 146.599 26.8913 146.599 27.3985H141.255C141.255 26.5449 141.453 25.7347 141.849 24.9678C142.244 24.2009 142.82 23.5267 143.574 22.9453C144.329 22.3516 145.226 21.8877 146.265 21.5537C147.316 21.2197 148.491 21.0527 149.79 21.0527C151.349 21.0527 152.734 21.3125 153.946 21.832C155.159 22.3516 156.111 23.1309 156.804 24.1699C157.509 25.209 157.861 26.5078 157.861 28.0664V36.6572C157.861 37.7582 157.929 38.6611 158.065 39.3662C158.201 40.0589 158.399 40.6651 158.659 41.1846V41.5H153.26C153 40.9557 152.802 40.2754 152.666 39.459C152.542 38.6302 152.48 37.8014 152.48 36.9727ZM153.186 29.2725L153.223 32.2969H150.235C149.53 32.2969 148.918 32.3773 148.398 32.5381C147.879 32.6989 147.452 32.9277 147.118 33.2246C146.784 33.5091 146.537 33.8431 146.376 34.2266C146.228 34.61 146.153 35.0306 146.153 35.4883C146.153 35.946 146.258 36.3604 146.469 36.7315C146.679 37.0902 146.982 37.3747 147.378 37.585C147.774 37.7829 148.238 37.8819 148.77 37.8819C149.574 37.8819 150.272 37.721 150.866 37.3994C151.46 37.0778 151.918 36.682 152.239 36.2119C152.573 35.7419 152.746 35.2966 152.759 34.876L154.169 37.1397C153.971 37.6468 153.699 38.1725 153.353 38.7168C153.019 39.2611 152.592 39.7744 152.072 40.2569C151.553 40.7269 150.928 41.1166 150.198 41.4258C149.468 41.7227 148.603 41.8711 147.601 41.8711C146.326 41.8711 145.17 41.6175 144.131 41.1104C143.104 40.5908 142.288 39.8796 141.682 38.9766C141.088 38.0612 140.791 37.0222 140.791 35.8594C140.791 34.808 140.989 33.874 141.385 33.0576C141.781 32.2412 142.362 31.5547 143.129 30.9981C143.908 30.4291 144.879 30.0023 146.042 29.7178C147.205 29.4209 148.553 29.2725 150.087 29.2725H153.186ZM172.835 35.9522C172.835 35.5687 172.724 35.2223 172.501 34.9131C172.278 34.6039 171.864 34.3194 171.258 34.0596C170.664 33.7875 169.804 33.5401 168.679 33.3174C167.664 33.0947 166.718 32.8164 165.84 32.4824C164.974 32.1361 164.219 31.7217 163.576 31.2393C162.945 30.7569 162.451 30.1878 162.092 29.5322C161.733 28.8643 161.554 28.1035 161.554 27.25C161.554 26.4089 161.733 25.6172 162.092 24.875C162.463 24.1328 162.989 23.4772 163.669 22.9082C164.362 22.3268 165.203 21.8753 166.192 21.5537C167.194 21.2197 168.32 21.0527 169.569 21.0527C171.313 21.0527 172.81 21.3311 174.06 21.8877C175.321 22.4444 176.286 23.2113 176.954 24.1885C177.634 25.1533 177.975 26.2542 177.975 27.4912H172.631C172.631 26.9717 172.52 26.5078 172.297 26.0996C172.087 25.6791 171.753 25.3513 171.295 25.1162C170.85 24.8688 170.268 24.7451 169.551 24.7451C168.957 24.7451 168.444 24.8503 168.011 25.0606C167.578 25.2585 167.244 25.5306 167.009 25.877C166.786 26.211 166.675 26.582 166.675 26.9902C166.675 27.2995 166.737 27.5778 166.86 27.8252C166.996 28.0602 167.213 28.2767 167.51 28.4746C167.807 28.6725 168.19 28.8581 168.66 29.0313C169.143 29.1921 169.736 29.3405 170.441 29.4766C171.889 29.7735 173.181 30.1631 174.319 30.6455C175.457 31.1156 176.36 31.7588 177.028 32.5752C177.696 33.3792 178.03 34.4369 178.03 35.7481C178.03 36.6387 177.832 37.4551 177.437 38.1973C177.041 38.9395 176.472 39.5889 175.729 40.1455C174.987 40.6898 174.097 41.1166 173.058 41.4258C172.031 41.7227 170.874 41.8711 169.588 41.8711C167.72 41.8711 166.137 41.5371 164.838 40.8692C163.551 40.2012 162.574 39.3539 161.906 38.3272C161.251 37.2881 160.923 36.2243 160.923 35.1358H165.988C166.013 35.8656 166.199 36.4531 166.545 36.8985C166.904 37.3438 167.355 37.6654 167.899 37.8633C168.456 38.0612 169.056 38.1602 169.699 38.1602C170.392 38.1602 170.967 38.0674 171.425 37.8819C171.882 37.6839 172.229 37.4242 172.464 37.1026C172.711 36.7686 172.835 36.3851 172.835 35.9522ZM191.334 21.4238V25.209H179.645V21.4238H191.334ZM182.539 16.4697H187.883V35.4512C187.883 36.0326 187.957 36.4779 188.105 36.7871C188.266 37.0964 188.501 37.3128 188.811 37.4365C189.12 37.5479 189.509 37.6035 189.979 37.6035C190.313 37.6035 190.61 37.5912 190.87 37.5664C191.142 37.5293 191.371 37.4922 191.557 37.4551L191.575 41.3887C191.118 41.5371 190.623 41.6546 190.091 41.7412C189.559 41.8278 188.971 41.8711 188.328 41.8711C187.153 41.8711 186.126 41.6794 185.248 41.2959C184.382 40.9001 183.714 40.2692 183.244 39.4033C182.774 38.5375 182.539 37.3994 182.539 35.9893V16.4697Z" fill="#274C5B"/>
<path d="M1.85059 42.0684H19.2909H36.7312" stroke="#FDC400" stroke-width="2" stroke-miterlimit="10"/>
<path d="M5.79102 48.5L19.291 48.5L32.791 48.5" stroke="#FDC400" stroke-width="2" stroke-miterlimit="10"/>
<path d="M18.791 1.50002L18.791 8.50002L18.791 15.5" stroke="#FDC400" stroke-width="2" stroke-miterlimit="10"/>
<path d="M18.8657 14.7842V41.2158" stroke="#FDC400" stroke-width="2" stroke-miterlimit="10"/>
<path d="M29.9254 4.55275L18.8657 15.637" stroke="#FDC400" stroke-width="2" stroke-miterlimit="10"/>
<path d="M34.1792 8.81593L18.8657 24.1633" stroke="#FDC400" stroke-width="2" stroke-miterlimit="10"/>
<path d="M36.7314 15.6367L18.8657 32.6894" stroke="#FDC400" stroke-width="2" stroke-miterlimit="10"/>
<path d="M37.5821 23.3106L18.8657 42.0685" stroke="#FDC400" stroke-width="2" stroke-miterlimit="10"/>
<path d="M37.582 31.8369L27.373 42.0685" stroke="#FDC400" stroke-width="2" stroke-miterlimit="10"/>
<path d="M1 31.8369L11.209 42.0685" stroke="#FDC400" stroke-width="2" stroke-miterlimit="10"/>
<path d="M8.65674 4.55275L18.8657 15.637" stroke="#FDC400" stroke-width="2" stroke-miterlimit="10"/>
<path d="M4.40283 8.81593L18.8655 24.1633" stroke="#FDC400" stroke-width="2" stroke-miterlimit="10"/>
<path d="M1.85059 14.7842L18.8655 32.6895" stroke="#FDC400" stroke-width="2" stroke-miterlimit="10"/>
<path d="M1 22.458L18.8657 41.2159" stroke="#FDC400" stroke-width="2" stroke-miterlimit="10"/>
<path d="M19.291 54.8579C9.19019 54.8579 1 46.4056 1 35.9772V20.0228C1 9.5963 9.19019 1.14211 19.291 1.14211C29.3937 1.14211 37.5821 9.5963 37.5821 20.0228V35.9772C37.5839 46.4056 29.3937 54.8579 19.291 54.8579Z" stroke="#FDC400" stroke-width="2" stroke-miterlimit="10"/>
</svg>
